<svg xmlns="http://www.w3.org/2000/svg" width="200" height="200" preserveAspectRatio="xMidYMid meet" version="1.0" viewBox="0 0 150 150"><g fill="#000" stroke="none"><path d="M0 750 l0 -750 750 0 750 0 0 750 0 750 -750 0 -750 0 0 -750z m950 615 c0 -8 3 -15 8 -15 4 0 15 -18 24 -39 l17 -39 83 -5 c46 -3 106 -11 133 -17 28 -6 89 -13 138 -17 76 -5 87 -8 87 -24 0 -12 -7 -19 -20 -19 -11 0 -28 -4 -38 -9 -55 -29 -114 -36 -281 -34 -175 1 -201 -3 -201 -36 0 -6 -4 -11 -10 -11 -5 0 -10 -9 -10 -20 0 -11 -4 -20 -10 -20 -5 0 -10 -9 -10 -20 0 -11 -4 -20 -10 -20 -5 0 -10 -8 -10 -18 0 -10 -9 -24 -20 -32 -11 -8 -20 -21 -20 -30 0 -9 -9 -22 -20 -30 -11 -8 -20 -23 -20 -33 0 -11 -13 -32 -30 -47 -16 -15 -30 -35 -30 -44 0 -11 9 -16 30 -16 17 0 30 -4 30 -10 0 -6 27 -10 60 -10 33 0 60 -4 60 -10 0 -5 16 -10 35 -10 19 0 35 -4 35 -10 0 -5 9 -10 20 -10 24 0 25 -6 5 -27 -9 -8 -22 -12 -30 -9 -8 3 -15 1 -15 -4 0 -6 -29 -8 -72 -4 -40 3 -100 7 -133 8 -33 1 -65 5 -72 9 -7 4 -16 -4 -25 -23 -7 -16 -16 -30 -20 -30 -5 0 -8 -10 -8 -21 0 -12 -8 -29 -18 -38 -11 -9 -22 -28 -26 -44 -3 -15 -11 -27 -16 -27 -6 0 -10 -8 -10 -18 0 -10 -9 -24 -20 -32 -11 -8 -20 -22 -20 -32 0 -10 -4 -18 -10 -18 -5 0 -10 -10 -10 -23 0 -12 -9 -29 -20 -37 -11 -8 -20 -22 -20 -32 0 -10 -4 -18 -10 -18 -5 0 -10 -9 -10 -20 0 -11 -4 -20 -10 -20 -5 0 -10 -7 -10 -16 0 -9 -8 -24 -19 -33 -10 -9 -26 -31 -35 -48 -24 -48 -58 -44 -107 9 -33 37 -39 50 -39 89 0 29 6 52 18 65 9 10 42 55 71 99 30 44 63 87 73 96 10 9 18 22 18 29 0 6 14 25 30 40 17 15 30 36 30 45 0 9 7 23 15 31 17 17 10 41 -14 49 -10 3 -23 17 -30 31 -18 41 2 57 62 51 42 -4 52 -1 73 20 13 13 24 33 24 44 0 12 14 34 30 49 17 15 30 33 30 40 0 6 18 29 40 50 22 21 40 46 40 54 0 9 5 16 10 16 6 0 10 9 10 20 0 11 5 20 10 20 6 0 10 11 10 25 0 14 5 25 10 25 6 0 10 9 10 20 0 13 -7 20 -20 20 -11 0 -20 5 -20 10 0 6 -7 10 -15 10 -27 0 -65 47 -67 82 -3 31 -1 33 31 36 18 2 38 -1 44 -7 6 -6 28 -11 49 -11 21 0 38 -4 38 -10 0 -5 12 -10 26 -10 17 0 28 6 31 20 3 11 9 20 14 20 5 0 9 11 9 25 0 22 4 25 35 25 24 0 35 -5 35 -15z" transform="translate(0.000000,150.000000) scale(0.100000,-0.100000)"/></g></svg>